<svg width="20" height="20" viewBox="0 0 28 30" fill="none" xmlns="http://www.w3.org/2000/svg">
<path d="M11.7895 19.7561H2.21053C1.62426 19.7561 1.062 19.5248 0.647448 19.1131C0.232894 18.7015 0 18.1431 0 17.561V13.1707C0 12.5885 0.232894 12.0302 0.647448 11.6185C1.062 11.2069 1.62426 10.9756 2.21053 10.9756H11.7895C12.3757 10.9756 12.938 11.2069 13.3525 11.6185C13.7671 12.0302 14 12.5885 14 13.1707V17.561C14 18.1431 13.7671 18.7015 13.3525 19.1131C12.938 19.5248 12.3757 19.7561 11.7895 19.7561ZM2.21053 12.439C2.0151 12.439 1.82768 12.5161 1.6895 12.6533C1.55131 12.7905 1.47368 12.9766 1.47368 13.1707V17.561C1.47368 17.755 1.55131 17.9411 1.6895 18.0783C1.82768 18.2156 2.0151 18.2927 2.21053 18.2927H11.7895C11.9849 18.2927 12.1723 18.2156 12.3105 18.0783C12.4487 17.9411 12.5263 17.755 12.5263 17.561V13.1707C12.5263 12.9766 12.4487 12.7905 12.3105 12.6533C12.1723 12.5161 11.9849 12.439 11.7895 12.439H2.21053Z" fill="#002C53"/>
<path d="M14.7367 8.78014H7.36832C7.22285 8.77942 7.08085 8.73595 6.96021 8.65522C6.83957 8.57449 6.7457 8.4601 6.69042 8.32648C6.634 8.19323 6.61858 8.04636 6.64612 7.90442C6.67366 7.76248 6.74292 7.63181 6.84516 7.52892L14.2136 0.211845C14.3172 0.110315 14.4488 0.041537 14.5917 0.01419C14.7347 -0.0131569 14.8825 0.00215221 15.0167 0.0581859C15.1513 0.113079 15.2665 0.206296 15.3478 0.326092C15.4291 0.445887 15.4728 0.586899 15.4736 0.731357V8.04843C15.4736 8.24249 15.3959 8.4286 15.2578 8.56583C15.1196 8.70305 14.9322 8.78014 14.7367 8.78014ZM9.14411 7.31672H13.9999V2.49477L9.14411 7.31672Z" fill="#002C53"/>
<path d="M3.8881 13.3831C4.05064 13.3793 4.21226 13.4085 4.36303 13.4689C4.51381 13.5293 4.65058 13.6196 4.76495 13.7344C4.88714 13.8417 4.9851 13.9734 5.0524 14.1209C5.11971 14.2685 5.15483 14.4285 5.15547 14.5905C5.15724 14.7501 5.12612 14.9083 5.06403 15.0556C5.00194 15.2028 4.91019 15.3358 4.79442 15.4466C4.67868 15.559 4.5415 15.6473 4.39093 15.7063C4.24036 15.7654 4.07943 15.794 3.91758 15.7905H3.25442V16.9685H2.51758V13.3831H3.8881ZM3.8881 15.1319C3.9589 15.1349 4.02944 15.1219 4.0945 15.094C4.15956 15.0662 4.21746 15.0241 4.26389 14.971C4.3147 14.9215 4.35468 14.8622 4.38131 14.7968C4.40794 14.7313 4.42064 14.6611 4.41863 14.5905C4.42136 14.5176 4.40904 14.445 4.38243 14.377C4.35581 14.3091 4.31548 14.2472 4.26389 14.1953C4.21612 14.1443 4.1578 14.1042 4.09294 14.0777C4.02807 14.0511 3.95819 14.0389 3.8881 14.0417H3.25442V15.1319H3.8881Z" fill="#002C53"/>
<path d="M7.02278 13.3831C7.25427 13.3787 7.48411 13.4226 7.69738 13.5121C7.91065 13.6016 8.10257 13.7347 8.26067 13.9026C8.58224 14.2497 8.76071 14.7042 8.76071 15.1758C8.76071 15.6474 8.58224 16.1019 8.26067 16.449C8.10374 16.6184 7.91204 16.7525 7.69849 16.8421C7.48495 16.9317 7.25453 16.9748 7.02278 16.9685H5.58594V13.3831H7.02278ZM7.02278 16.31C7.16093 16.3116 7.2979 16.2845 7.42482 16.2303C7.55175 16.1761 7.6658 16.096 7.75962 15.9953C7.95035 15.7699 8.05492 15.4849 8.05492 15.1904C8.05492 14.896 7.95035 14.611 7.75962 14.3856C7.66433 14.2872 7.54983 14.2093 7.42313 14.1564C7.29643 14.1036 7.1602 14.077 7.02278 14.0782H6.28594V16.31H7.02278Z" fill="#002C53"/>
<path d="M11.4193 14.0633H9.94565V14.9121H11.353V15.5853H9.97512V16.9682H9.23828V13.3828H11.4193V14.0633Z" fill="#002C53"/>
<path d="M25.7907 28.5366H20.9497C20.7542 28.5366 20.5668 28.4595 20.4286 28.3223C20.2904 28.1851 20.2128 27.999 20.2128 27.8049C20.2128 27.6108 20.2904 27.4247 20.4286 27.2875C20.5668 27.1503 20.7542 27.0732 20.9497 27.0732H25.7907C25.9861 27.0732 26.1736 26.9961 26.3117 26.8589C26.4499 26.7217 26.5276 26.5355 26.5276 26.3415V2.19513C26.5276 2.00107 26.4499 1.81496 26.3117 1.67774C26.1736 1.54052 25.9861 1.46343 25.7907 1.46343H15.0402L8.10651 8.34879V11.7073C8.10651 11.9014 8.02888 12.0875 7.89069 12.2247C7.75251 12.3619 7.56509 12.439 7.36967 12.439C7.17424 12.439 6.98683 12.3619 6.84864 12.2247C6.71046 12.0875 6.63282 11.9014 6.63282 11.7073V8.04879C6.63226 7.9525 6.65085 7.85704 6.68752 7.76789C6.72419 7.67874 6.77822 7.59765 6.84651 7.52928L14.2149 0.212207C14.2838 0.144392 14.3654 0.0907391 14.4552 0.054326C14.545 0.0179128 14.6411 -0.000544521 14.7381 1.223e-05H25.7907C26.377 1.223e-05 26.9392 0.231283 27.3538 0.642949C27.7683 1.05461 28.0012 1.61295 28.0012 2.19513V26.3415C28.0012 26.9237 27.7683 27.482 27.3538 27.8937C26.9392 28.3053 26.377 28.5366 25.7907 28.5366Z" fill="#002C53"/>
<path d="M18.8423 28.5369H8.84334C8.25707 28.5369 7.69481 28.3056 7.28026 27.8939C6.86571 27.4823 6.63281 26.9239 6.63281 26.3418V19.0247C6.63281 18.8306 6.71044 18.6445 6.84863 18.5073C6.98681 18.3701 7.17423 18.293 7.36965 18.293C7.56508 18.293 7.7525 18.3701 7.89068 18.5073C8.02886 18.6445 8.1065 18.8306 8.1065 19.0247V26.3418C8.1065 26.5358 8.18413 26.7219 8.32231 26.8591C8.4605 26.9964 8.64792 27.0735 8.84334 27.0735H18.8423C19.0377 27.0735 19.2251 27.1505 19.3633 27.2878C19.5015 27.425 19.5791 27.6111 19.5791 27.8052C19.5791 27.9992 19.5015 28.1853 19.3633 28.3226C19.2251 28.4598 19.0377 28.5369 18.8423 28.5369Z" fill="#002C53"/>
<path d="M19.8962 30C19.7793 29.9995 19.6642 29.9713 19.5604 29.9179C19.4566 29.8645 19.3671 29.7873 19.2993 29.6927L15.6151 24.5708C15.5368 24.4615 15.4902 24.3331 15.4805 24.1994C15.4707 24.0657 15.4981 23.9319 15.5597 23.8126C15.6212 23.6933 15.7147 23.593 15.8297 23.5229C15.9447 23.4527 16.077 23.4153 16.212 23.4147H16.9488V19.7561C16.9488 19.5621 17.0264 19.3759 17.1646 19.2387C17.3028 19.1015 17.4902 19.0244 17.6856 19.0244H22.1067C22.3021 19.0244 22.4895 19.1015 22.6277 19.2387C22.7659 19.3759 22.8435 19.5621 22.8435 19.7561V23.4147H23.5804C23.7154 23.4153 23.8476 23.4527 23.9626 23.5229C24.0777 23.593 24.1711 23.6933 24.2327 23.8126C24.2943 23.9319 24.3217 24.0657 24.3119 24.1994C24.3021 24.3331 24.2555 24.4615 24.1772 24.5708L20.493 29.6927C20.4252 29.7873 20.3357 29.8645 20.2319 29.9179C20.1282 29.9713 20.0131 29.9995 19.8962 30ZM17.6414 24.8781L19.8962 28.0098L22.1509 24.8781H22.1067C21.9113 24.8781 21.7239 24.801 21.5857 24.6638C21.4475 24.5265 21.3699 24.3404 21.3699 24.1464V20.4878H18.4225V24.1464C18.4225 24.3404 18.3449 24.5265 18.2067 24.6638C18.0685 24.801 17.8811 24.8781 17.6856 24.8781H17.6414Z" fill="#002C53"/>
</svg>
