<svg width="18" height="18" viewBox="0 0 18 18" fill="none" xmlns="http://www.w3.org/2000/svg">
<circle cx="9" cy="9" r="8.5" stroke="white"/>
<path d="M12 14.288C11.2777 14.7627 10.2757 15 8.99417 15C7.23495 15 5.79612 14.4559 4.67767 13.3676C3.55922 12.2793 3 10.8205 3 8.99132C3 7.21997 3.55922 5.77858 4.67767 4.66715C5.80777 3.55572 7.23495 3 8.95922 3C10.2175 3 11.2252 3.21418 11.9825 3.64255V5.39653C11.4699 5.11867 11.0039 4.92764 10.5845 4.82344C10.1767 4.70767 9.65243 4.64978 9.01165 4.64978C7.83495 4.64978 6.85049 5.0492 6.05825 5.84805C5.27767 6.63531 4.88738 7.68307 4.88738 8.99132C4.88738 10.3227 5.27767 11.3821 6.05825 12.1693C6.83883 12.9566 7.8699 13.3502 9.15146 13.3502C10.2816 13.3502 11.2311 13.0608 12 12.4819V14.288Z" fill="white"/>
</svg>
