<svg width="34" height="34" viewBox="0 0 34 34" fill="none" xmlns="http://www.w3.org/2000/svg">
<path d="M20.2609 23.4077C20.2609 23.4077 22.7915 21.9589 23.454 21.6108C24.1146 21.2614 24.799 21.1733 25.2146 21.427C25.844 21.812 31.129 25.3277 31.574 25.639C32.019 25.9509 32.2333 26.8415 31.6215 27.714C31.0121 28.5865 28.2009 32.0366 27.0096 31.9997C25.8165 31.961 20.8559 31.8522 11.5015 22.4952C2.14906 13.1413 2.03844 8.17933 2.00031 6.98618C1.96219 5.79366 5.41218 2.98174 6.28468 2.37173C7.15842 1.76235 8.05029 1.99173 8.36029 2.42048C8.71279 2.90862 12.1878 8.17683 12.5703 8.78059C12.8322 9.19309 12.7359 9.88123 12.3865 10.5425C12.039 11.205 10.5903 13.7357 10.5903 13.7357C10.5903 13.7357 11.6115 15.4776 15.0653 18.9307C18.5196 22.3846 20.2609 23.4077 20.2609 23.4077Z" stroke="#002C53" stroke-width="3" stroke-miterlimit="10"/>
</svg>
