<svg width="32" height="32" viewBox="0 0 32 32" fill="none" xmlns="http://www.w3.org/2000/svg">
<g filter="url(#filter0_d_79_31)">
<path d="M16 1C9.92487 1 5 5.92487 5 12C5 18.0751 9.92487 23 16 23C22.0751 23 27 18.0751 27 12C27 5.92487 22.0751 1 16 1Z" stroke="white" stroke-width="2" stroke-linecap="round" stroke-linejoin="round"/>
<path d="M7.49805 18.9802C7.49805 18.9802 9.94997 15.85 15.9999 15.85C22.0499 15.85 24.502 18.9802 24.502 18.9802" stroke="white" stroke-width="2" stroke-linecap="round" stroke-linejoin="round"/>
<path d="M16.0002 12C17.8228 12 19.3002 10.5226 19.3002 8.70002C19.3002 6.87749 17.8228 5.40002 16.0002 5.40002C14.1776 5.40002 12.7002 6.87749 12.7002 8.70002C12.7002 10.5226 14.1776 12 16.0002 12Z" stroke="white" stroke-width="2" stroke-linecap="round" stroke-linejoin="round"/>
</g>
<defs>
<filter id="filter0_d_79_31" x="0" y="0" width="32" height="32" filterUnits="userSpaceOnUse" color-interpolation-filters="sRGB">
<feFlood flood-opacity="0" result="BackgroundImageFix"/>
<feColorMatrix in="SourceAlpha" type="matrix" values="0 0 0 0 0 0 0 0 0 0 0 0 0 0 0 0 0 0 127 0" result="hardAlpha"/>
<feOffset dy="4"/>
<feGaussianBlur stdDeviation="2"/>
<feComposite in2="hardAlpha" operator="out"/>
<feColorMatrix type="matrix" values="0 0 0 0 0 0 0 0 0 0 0 0 0 0 0 0 0 0 0.25 0"/>
<feBlend mode="normal" in2="BackgroundImageFix" result="effect1_dropShadow_79_31"/>
<feBlend mode="normal" in="SourceGraphic" in2="effect1_dropShadow_79_31" result="shape"/>
</filter>
</defs>
</svg>
