<svg width="38" height="26" viewBox="0 0 38 26" fill="none" xmlns="http://www.w3.org/2000/svg">
<path d="M19 26C6.14822 26 0.356994 14.0065 0.118998 13.5032C-0.039666 13.1677 -0.039666 12.8323 0.118998 12.4968C0.356994 11.9935 6.14822 0 19 0C31.8518 0 37.643 11.9935 37.881 12.4968C38.0397 12.8323 38.0397 13.1677 37.881 13.5032C37.643 14.0903 31.8518 26 19 26ZM2.26095 13.0839C3.45093 15.2645 8.92484 23.8193 19 23.8193C29.0752 23.8193 34.5491 15.2645 35.739 13.0839C34.5491 10.9032 29.0752 2.3484 19 2.3484C8.92484 2.3484 3.45093 10.9032 2.26095 13.0839Z" fill="white"/>
<path d="M18.9997 23.6521C13.4465 23.6521 9.00391 18.8714 9.00391 13.0843C9.00391 7.29725 13.5258 2.5166 18.9997 2.5166C24.4736 2.5166 28.9956 7.29725 28.9956 13.0843C28.9956 18.8714 24.553 23.6521 18.9997 23.6521ZM18.9997 4.69725C14.6365 4.69725 11.0665 8.47145 11.0665 13.0843C11.0665 17.6973 14.6365 21.4714 18.9997 21.4714C23.363 21.4714 26.9329 17.6973 26.9329 13.0843C26.9329 8.47145 23.363 4.69725 18.9997 4.69725Z" fill="white"/>
<path d="M19.0005 18.9549C15.9859 18.9549 13.4473 16.3549 13.4473 13.084C13.4473 12.4969 13.9233 11.9937 14.4786 11.9937C15.0339 11.9937 15.5099 12.4969 15.5099 13.084C15.5099 15.0969 17.0172 16.6904 18.9212 16.6904C20.8251 16.6904 22.3324 15.0969 22.3324 13.084C22.3324 11.0711 20.8251 9.47753 18.9212 9.47753C18.3658 9.47753 17.8899 8.97428 17.8899 8.38719C17.8899 7.80009 18.3658 7.29688 18.9212 7.29688C21.9358 7.29688 24.4744 9.89688 24.4744 13.1678C24.4744 16.4388 22.0151 18.9549 19.0005 18.9549Z" fill="white"/>
</svg>
