<svg width="24" height="24" viewBox="0 0 24 24" fill="none" xmlns="http://www.w3.org/2000/svg">
<path d="M14.3928 16.699C14.3928 16.699 16.2486 15.6365 16.7344 15.3812C17.2189 15.125 17.7207 15.0604 18.0255 15.2465C18.4871 15.5288 22.3627 18.107 22.689 18.3353C23.0154 18.564 23.1726 19.2171 22.7239 19.8569C22.277 20.4968 20.2154 23.0268 19.3418 22.9998C18.4669 22.9714 14.8291 22.8916 7.96926 16.0298C1.11078 9.17027 1.02965 5.5315 1.00169 4.65653C0.973737 3.78202 3.50373 1.71994 4.14356 1.2726C4.78431 0.825722 5.43835 0.993933 5.66568 1.30835C5.92418 1.66632 8.47251 5.52967 8.753 5.97243C8.94505 6.27493 8.87446 6.77957 8.61825 7.26449C8.36342 7.75033 7.30101 9.60615 7.30101 9.60615C7.30101 9.60615 8.04992 10.8835 10.5827 13.4159C13.1159 15.9487 14.3928 16.699 14.3928 16.699Z" stroke="white" stroke-width="2" stroke-miterlimit="10"/>
</svg>
