<svg width="36" height="32" viewBox="0 0 36 32" fill="none" xmlns="http://www.w3.org/2000/svg">
<path d="M30.9927 7.94043C32.0228 8.96821 32.8402 10.1891 33.3978 11.5332C33.9555 12.8773 34.2425 14.3182 34.2425 15.7734C34.2425 17.2286 33.9555 18.6694 33.3978 20.0135C32.8402 21.3576 32.0228 22.5785 30.9927 23.6063" stroke="#002C53" stroke-width="2" stroke-linecap="round" stroke-linejoin="round"/>
<path d="M9.61777 21.9289H2.23111C1.9046 21.9289 1.59146 21.7992 1.36058 21.5683C1.12971 21.3374 1 21.0243 1 20.6978V10.8489C1 10.5224 1.12971 10.2092 1.36058 9.97835C1.59146 9.74747 1.9046 9.61777 2.23111 9.61777H9.61777L20.6978 1V30.5466L9.61777 21.9289Z" stroke="#002C53" stroke-width="2" stroke-linecap="round" stroke-linejoin="round"/>
<path d="M9.61768 9.61768V21.9288" stroke="#002C53" stroke-width="2" stroke-linecap="round" stroke-linejoin="round"/>
<path d="M26.6382 12.2954C27.096 12.7515 27.4593 13.2935 27.7072 13.8903C27.9551 14.4871 28.0827 15.127 28.0827 15.7733C28.0827 16.4195 27.9551 17.0594 27.7072 17.6563C27.4593 18.2531 27.096 18.7951 26.6382 19.2512" stroke="#002C53" stroke-width="2" stroke-linecap="round" stroke-linejoin="round"/>
</svg>
